<svg width="225.55" height="43.06309236717411" viewBox="0 0 370 70.64218211418496" class="css-1j8o68f" xmlns="http://www.w3.org/2000/svg"><path d="M55.797,35.747c-22.147,0-40.167,18.019-40.167,40.167c0,1.585,0.096,3.197,0.286,4.793   c0.12,1.006,0.973,1.764,1.985,1.764h75.79c1.013,0,1.866-0.758,1.985-1.764c0.19-1.596,0.287-3.208,0.287-4.793   C95.964,53.766,77.944,35.747,55.797,35.747z M52.501,48.782c-0.768,1.458-7.17,3.468-7.292,5.631s2.683,2.842,3.231,4.567   c0.549,1.727,0.11,2.674-1.446,2.615c-1.558-0.059-3.081-2.029-4.364-2.25c-2.832-0.488-4.416,3.606-4.568,4.309   c-0.221,1.022,0.193,2.135,0.915,2.444c1.103,0.472,3.22-1.328,4.407-1.681c2.236-0.663,5.178,3.105,4.496,4.867   c-0.568,1.469-2.668,0.356-3.889,1.22c-1.22,0.862-1.215,2.495-2.322,3.319c-2.734,2.036-3.643,1.158-4.781,2.635   c-1.627,2.106,1.471,3.687,4.821,4.817h-7.913c-2.369-1.19-4.892-3.138-6.059-7.588c-0.484-1.854,0.918-2.632,0.795-4.403   c-0.123-1.772-0.742-4.457-1.516-5.992s-1.816-2.401-2.96-2.888c-1.112-0.473-2.388,0.517-3.248,0.243   c1.372-3.14,3.153-6.059,5.278-8.69c1.963,0.023,2.422,2.481,4.611,3.61c2.219,1.145,4.546-3.745,6.858-4.909   c2.312-1.164,5.233-1.527,7.436-2.094c2.203-0.565,4.406-1.339,5.775-1.3C52.138,47.306,53.267,47.325,52.501,48.782z    M93.771,79.757c-0.049,0.427-0.048,0.631-0.116,1.52H59.142c0.038-0.208,0.092-0.411,0.162-0.603   c0.313-0.852,1.264-1.43,1.738-2.125c0.476-0.695,0.579-1.403,1.061-1.84c0.482-0.437,0.813-0.164,1.622-0.338   c0.81-0.175,1.936-1.139,2.651-0.884c0.715,0.256,0.599,0.221,0.777,1.2c0.18,0.979,1.545,1.795,2.6,1.264   c1.296-0.652,1.538-0.845,2.283-1.157c5.848-2.452,0.67-9.86-2.123-7.015c-0.838,0.854,2.053,2.26,0.947,3.723   c-0.987,1.306-3.953-2.374-4.287-2.355c-1.201,0.069-2.41,2.753-3.519,2.753c-0.987,0-1.958-1.529-1.958-2.067   c0-0.596,0.727-0.867,2.16-1.694c0.828-0.479-1.243-1.457-0.846-1.843c0.398-0.387,3.052-1.329,4.543-1.765   c1.491-0.437,2.139,0.216,3.133-0.051c0.975-0.262,0.042-1.402,1.68-3.041c1.361-1.36-1.064-3.229-2.033-3.144   c-3.163,0.278-2.072,3.969-3.895,3.559c-2.874-0.646-0.654-7.717,4.141-7.381c1.963,0.138,3.966,3.028,4.691,2.324   c0.727-0.704-0.102-2.484,0.385-3.521c0.486-1.038,2.107-3.424,2.742-2.382c1.061,1.743-0.607,5.362,0.772,5.486   c1.451,0.13,1.849-2.207,2.511-2.941c0.536-0.594,1.156,0.413,1.826,0c1.818-1.118,1.197-2.92,1.684-4.576   c5.837,6.703,9.373,15.465,9.373,25.052C93.964,77.211,93.897,78.493,93.771,79.757z"></path></svg>